<svg viewBox="0 0 500 500" xmlns="http://www.w3.org/2000/svg"><path fill="#64626d" d="M284.875 46.563c3.783 4.339 5.972 8.216 7.813 13.687l.681 1.969Q294.192 64.607 295 67l2.11-.867c12.494-4.897 22.182-7.14 34.89-2.133 10.41 4.816 18.184 12.665 22.336 23.48 2.528 8.366 3.466 14.951 1.664 23.52l2.746.41c14.073 2.487 21.06 9.15 29.254 20.59 4.402 6.926 7.518 14.192 10 22l1.086 3.371c2.168 8.608 2.124 18.14-1.672 26.266-2.672 4.465-5.763 8.65-9.414 12.363h-2v2q-2.746 1.537-5.5 3.063c-3.164 2.024-3.164 2.024-5.5 4.937-.663 4.407-.434 8.38-.148 12.8.513 8.608-3.448 15.749-8.875 22.192-6.898 7.007-14.114 9.944-23.891 10.035-11.83-.596-20.286-4.043-28.758-12.418-6.935-7.773-7.145-15.83-6.8-25.914.373-5.284 1.945-9.65 4.378-14.347 1.376-2.52 1.376-2.52 1.094-6.348-.97-1.877-.97-1.877-2.312-3.687-4.498-6.88-6.323-14.15-6.688-22.313l-.124-1.949c-.226-6.073 1.05-10.94 3.124-16.613l.867-2.479c.699-1.99 1.414-3.976 2.133-5.959l-1.745-.498c-5.368-1.642-9.222-3.531-13.63-7.002l-3.023-2.344c-4.097-3.395-4.097-3.395-5.602-5.156v-2c-4.082.492-7.41 1.535-11.15 3.223-11.23 4.927-23.795 6.02-35.678 2.71-2.837-1.17-5.478-2.47-8.172-3.933a197 197 0 0 0-5-2l-1.285 2.047c-6.97 10.6-15.125 13.03-26.715 16.953l-.516 3.367c-2.035 12.748-4.615 21.977-13.07 32.09-1.747 2.456-1.747 2.456-.766 5.094L184 184l1 2.21q.997 2.16 2 4.313c4.08 10.107 4.87 22.347 2.09 32.946A49 49 0 0 1 185 231l-1.387 2.152c-1.44 2.057-2.97 3.949-4.613 5.848l-1.809 2.129c-5.599 6.117-11.092 9.271-19.379 10.246-12.764.464-25.389-1.944-35.472-10.102-7.7-7.48-12.625-16.255-12.859-27.073l.019-2.387.013-2.511c.296-10.79 4.455-19.513 10.487-28.302l-2.562-1.812c-8.062-6.766-13.52-17.957-14.835-28.317-.173-3.279-.198-6.525-.165-9.809l-.073-3.302c.021-11.82 4.276-22.32 12.635-30.76 9.225-7.732 17.002-10.804 29-10 2.01.272 4.018.572 6 1l.125-3.25C151.51 84.178 157.909 75.564 166 69c7.891-5.668 18.797-9.844 28.602-9.406 4.322.732 8.435 2.12 12.578 3.531 2.805 1.023 2.805 1.023 5.82.875l1-3h2l.688-2.125c4.196-9.192 13.556-15.335 22.726-19.02 16.121-5.333 32.199-5.113 45.461 6.708"/><path fill="#a54b19" d="M258.188 153.313c4.704 2.822 4.704 2.822 6.812 4.687v2l3 1c12.24 16.32 15.979 39.557 18.945 59.223a401 401 0 0 0 2.654 15.333c1.035 5.394 2.014 10.798 2.994 16.202q.425 2.338.853 4.676c7.188 39.218 7.188 39.218 7.241 56.628l.021 3.29c-.155 6.64-1.18 12.894-4.708 18.648l-3 1-1 3c-10.09 6.458-26.091 9.249-38 7-3.306-3.425-4.664-6.351-5.703-10.957l-.781-3.37-.766-3.486-.812-3.544Q244.95 320.324 244 316c-.315 1.109-.63 2.217-.953 3.36l-1.297 4.39-.621 2.21c-1.294 4.315-2.463 7.17-6.129 10.04-9.187 4.273-19.692 1.74-29-1-5.614-2.44-9.137-5.495-12-11-1.793-5.269-2.387-9.935-2.375-15.437l.005-2.457c.312-16.247 4.052-32.501 8.37-48.106l2.938-10.687.776-2.816a555 555 0 0 0 4.911-19.372l.623-2.64c.76-3.23 1.517-6.46 2.258-9.695 4.391-19.117 10.736-35.656 23.494-50.79l1.973-2.613c5.534-6.515 13.114-9.41 21.214-6.074"/><path fill="#d00c5d" d="M339.043 67.7c9.495 6.31 14.577 16.271 17.309 27.023 1.138 5.752.854 10.542-.352 16.277l2.746.41c14.073 2.487 21.06 9.15 29.254 20.59 4.402 6.926 7.518 14.192 10 22l1.086 3.371c2.168 8.608 2.124 18.14-1.672 26.266-2.672 4.465-5.763 8.65-9.414 12.363h-2v2q-2.746 1.537-5.5 3.063c-3.164 2.024-3.164 2.024-5.5 4.937-.663 4.407-.434 8.38-.148 12.8.513 8.608-3.448 15.749-8.875 22.192-6.898 7.007-14.114 9.944-23.891 10.035-11.83-.596-20.286-4.043-28.758-12.418-6.935-7.773-7.145-15.83-6.8-25.914.373-5.284 1.945-9.65 4.378-14.347 1.376-2.52 1.376-2.52 1.094-6.348-.97-1.877-.97-1.877-2.312-3.687-4.498-6.88-6.323-14.15-6.688-22.313l-.124-1.949c-.226-6.073 1.05-10.94 3.124-16.613l.867-2.479c.699-1.99 1.414-3.976 2.133-5.959l-1.745-.498c-5.368-1.642-9.222-3.531-13.63-7.002l-3.023-2.344c-5.365-4.446-5.365-4.446-6.602-8.156l-3-2c-1.168-2.355-1.168-2.355-2.187-5.187l-1.043-2.793c-2.73-10.714 1.738-22.14 6.984-31.446C286 78 286 78 289 77l.875-2.375c1.432-3.342 2.987-3.907 6.125-5.625l1.777-1.95c11.477-10.589 29.331-6.436 41.266.65"/><path fill="#463026" d="M183.908 359.942 186 360c-1.707 9.927-3.837 19.758-5.968 29.6-1.896 8.768-3.667 17.53-5.032 26.4l2 1c2.131-.61 2.131-.61 4-2 .799-1.817.799-1.817 1.02-3.965.13-.795.262-1.59.398-2.41l.395-2.562c2.18-12.035 6.57-19.73 16.687-26.813 5.354-1.912 10.888-2.142 16.5-1.25 3.344 2.166 4.731 3.194 6 7 .826 5.984.051 10.196-3.445 15.145-4.097 4.89-8.193 8.441-14.555 9.855h-4c.256 2.343.593 4.678 1 7 4.083 2.041 8.703 1.011 13 0v-2l2.82-1.855c4.82-3.859 5.07-9.681 6.055-15.457l.64-3.4q.775-4.139 1.485-8.288h-2c.313-3.375.313-3.375 1-7l3-2c.8-2.647.8-2.647 1.188-5.625l.48-3.04L229 366c6.154-1.823 11.596-2.236 18-2-.566 4.69-1.185 9.345-2 14l4 1v6l-2.884.625c-3.326 1.055-3.326 1.055-4.332 4.033l-.647 3.338-.748 3.631-.701 3.81-1.489 7.434-.63 3.342C237 414 237 414 236 417c2.904-.108 2.904-.108 6-1 2.851-3.788 3.837-7.607 4.875-12.187l.496-2.164c1.063-4.75 1.994-9.518 2.89-14.301l.656-3.49q.635-3.427 1.245-6.859c1.044-5.69 2.07-10.885 4.838-15.999 4.913-1.797 10.789-1.093 16-1a149 149 0 0 1-3 20l1.75-.984c3.41-1.54 6.572-1.408 10.25-1.016 2.5 1 2.5 1 4 2v2l3 1c2.42 7.26.89 14.168-1.266 21.305-1.059 3.887-1.405 7.685-1.734 11.695l5-1 .55-2.781c4.696-22.924 4.696-22.924 13.548-29.864 5.02-3.16 8.33-4.509 14.34-4.542l3.496-.043C326 378 326 378 329 380v2h2c2.008 4.016 1.61 8.884.387 13.125-2.93 6.608-8.062 11.404-14.637 14.313C314 410 314 410 310 410l1 8c5.425.452 8.568-.447 13.3-3.125C326 414 326 414 328 414c1.774-3.16 2.532-6.058 3.184-9.613.205-1.084.41-2.167.623-3.283q.627-3.399 1.25-6.797c1.106-5.814 2.313-10.993 4.943-16.307q3.156-.04 6.313-.062l3.55-.036C351 378 351 378 354 379c-.41 3.902-.849 7.476-1.937 11.25-1.184 4.175-1.874 8.312-2.555 12.594-.762 4.732-1.636 9.443-2.508 14.156 3.01-.344 3.01-.344 6-2 1.266-2.739 1.615-5.595 2.063-8.562 2.246-11.913 6.01-19.033 15.937-26.438 3.269-2.058 5.727-2.219 9.563-2.125l2.878.055L386 378h18c1.577 4.04.458 7.754-.434 11.828l-.475 2.27c-.501 2.386-1.015 4.769-1.528 7.152l-1.026 4.86A2888 2888 0 0 1 398 416l6 1c-.58 4.78-2.399 8.021-5 12-3.576 1.192-6.24 1.26-10 1-2.687-1.437-2.687-1.437-5-3-2.032-.969-2.032-.969-4-1-1.542 1.375-1.542 1.375-3 3-4.571 1.862-10.09 1.564-14.75.188-2.285-1.207-4.248-2.557-6.25-4.188l-2.75 1.938c-5.718 3.628-11.492 3.897-18.062 2.437-3.009-1.89-3.856-4.15-5.188-7.375l-2.266 1.496-2.984 1.942-2.953 1.933c-5.957 3.47-13.38 3.747-20.035 2.063-1.887-.746-1.887-.746-4.762-2.434l-1-3-1.426 1.059-1.886 1.379-1.864 1.37c-4.286 2.8-8.89 2.67-13.824 2.192-3.114-1.286-4.606-2.551-6.812-5.062-3.198-7.91-.653-16.416 1.156-24.422.61-3.274.778-6.198.656-9.516-2.301.92-3.706 1.53-5.04 3.664-1.211 2.948-1.809 5.839-2.433 8.965l-.787 3.885-.802 4.049q-.796 3.97-1.598 7.94l-.707 3.558C260 426 260 426 259 429h-19l-1.848.484c-4.805 1.151-9.532 1.205-14.09-.734-2.123-1.802-3.082-3.165-4.062-5.75-3.163 1.518-6.136 3.262-9.121 5.098-3.997 1.92-8.07 2.04-12.441 2.027l-2.817.008A27 27 0 0 1 189 429v-2c-2.842-1.573-2.842-1.573-6-2l-2.375 1.938c-4.641 3.646-9.892 3.646-15.625 3.062-3.635-1.624-4.774-2.661-7-6-1.76-6.816-.507-13.035 1.063-19.75l1.39-6.297.756-3.369c1.293-5.858 2.493-11.735 3.698-17.611q.975-4.738 1.956-9.473.57-2.75 1.137-5.5c5.516-1.497 10.184-2.217 15.908-2.058m22.655 28.433c-3.268 4.021-4.358 8.668-5.563 13.625 4.442-1.357 6.613-2.994 9-7 .603-2.994.867-5.95 1-9-2.328-.233-2.328-.233-4.437 2.375M319 386c-4.153 5.005-6.261 9.766-8 16 3.978-1.137 6.48-2.944 9.063-6.203 1.697-3.253 1.247-6.204.937-9.797zm64 1a105 105 0 0 0-5 4v2h-2c-2.473 7.761-4.697 14.774-4 23 1.046 1.234 1.046 1.234 3.313 1.438 2.895-.179 2.895-.179 4.714-2.754 2.872-4.58 3.396-9.805 4.223-15.059l.523-3.098q.632-3.76 1.227-7.527z"/><path fill="#97b723" d="M284.875 46.563c3.826 4.389 5.825 7.97 7.688 13.562 1.48 4.89 1.48 4.89 4.437 8.875l-2.875 1.75c-3.063 2.206-3.698 2.988-5.125 6.25l-1.89 1.766c-6.003 6.358-8.521 17.031-9.485 25.546.644 6.333 2.39 13.403 7.375 17.688l-2.559.309c-3.13.628-5.694 1.607-8.59 2.914-11.315 4.963-23.717 5.874-35.714 2.78-4.863-1.905-8.836-3.856-12.137-8.003-1.825-6.208-.988-13.183-.785-19.594.156-10.287-2.528-22.437-9.871-30.144-1.78-1.532-1.78-1.532-4.344-3.262l3-6h2l.688-2.125c4.196-9.192 13.556-15.335 22.726-19.02 16.121-5.333 32.199-5.113 45.461 6.708"/><path fill="#cc7718" d="M236 161c0 3.18-.58 4.528-1.875 7.375-4.503 11.021-4.5 22.883-4.437 34.625l.006 2.236c.154 33.201 5.395 66.828 13.565 99l.737 2.952.662 2.542c.373 2.476.11 3.908-.658 6.27l-1.05 3.75q-.63 2.126-1.262 4.25l-.608 2.156c-1.28 4.248-2.483 7.006-6.08 9.844-9.187 4.273-19.692 1.74-29-1-5.614-2.44-9.137-5.495-12-11-1.793-5.269-2.387-9.935-2.375-15.437l.005-2.457c.312-16.247 4.052-32.501 8.37-48.106l2.938-10.687.776-2.816a555 555 0 0 0 4.911-19.372l.623-2.64c.76-3.23 1.517-6.46 2.258-9.695 4.322-18.814 10.5-37.797 24.494-51.79"/><path fill="#66636e" d="M339.043 67.7c9.496 6.311 14.582 16.276 17.309 27.03 1.248 6.295.695 11.986-.352 18.27h-2l-.187 2.875c-.751 5.18-2.984 9.756-5.813 14.125-2.75 2-2.75 2-5 3l-1 2h-2l-1 3-7 1v2c-6.983 2.328-14.049.84-21-1l-2 4-1-2 1-3-3.75-.937c-7.425-2.44-15.15-8.14-20.25-14.063l-1-3-3-2c-1.168-2.355-1.168-2.355-2.187-5.187l-1.043-2.793c-2.73-10.714 1.738-22.14 6.984-31.446C286 78 286 78 289 77l.875-2.375c1.432-3.342 2.987-3.907 6.125-5.625l1.777-1.95c11.477-10.589 29.331-6.436 41.266.65"/><path fill="#94b922" d="M180 178c2.854 1.427 2.876 3.002 4 6q1.483 3.269 3 6.523c4.08 10.107 4.87 22.347 2.09 32.946A49 49 0 0 1 185 231l-1.387 2.152c-1.44 2.057-2.97 3.949-4.613 5.848l-1.809 2.129c-5.599 6.117-11.092 9.271-19.379 10.246-12.764.464-25.389-1.944-35.472-10.102-7.7-7.48-12.626-16.255-12.859-27.073l.019-2.387.01-2.51c.204-7.584 2.034-13.51 5.49-20.303l1.117-2.312c2.345-4.509 2.345-4.509 5.883-5.688l2.813 2.188c9.06 6.814 21.239 7.866 32.187 6.812 8.584-1.383 16.85-5.85 23-12"/><path fill="#cf0c5d" d="m210 64 1 3 1.75.813c7.562 3.99 9.701 12.599 12.25 20.187 1.042 3.382 1.102 6.44 1.063 9.973l-.024 3.474-.039 3.615q-.038 3.549-.062 7.098l-.036 3.176c-.023 2.77-.023 2.77 1.098 5.664l-1.687 1.563c-1.871 1.971-3.166 3.69-4.625 5.937-5.626 7.892-15.877 9.733-24.688 12.5l-1-13h-2a652 652 0 0 1-2-3.875l-1.125-2.18C189 120 189 120 189 118l-1.812-.812C185.002 116 183.742 114.742 182 113c-2.1-1.176-2.1-1.176-4-2v-2l-1.937-.75c-3.296-1.345-6.537-2.788-9.782-4.25L164 103l-2.324-1.055c-3.312-1.17-6.509-1.615-9.988-2.07l-3.801-.508L145 99v-1h5l.125-3.25C151.51 84.178 157.909 75.564 166 69c13.412-9.633 28.957-11.693 44-5"/><path fill="#90311b" d="M244 155v2l6 1v2h2v-2h2v-2l5 2v2l5 1q.075 9.76.11 19.519.015 3.308.04 6.615c.24 30.988.24 30.988-3.666 45.923-.744 2.985-1.237 6-1.738 9.033-.215 1.278-.43 2.556-.65 3.873l-.994 6.01q-.487 2.935-.98 5.867l-.581 3.511C255 264 255 264 254 265c-.475 2.18-.903 4.37-1.312 6.563-1.21 6.319-2.664 12.543-4.273 18.771a160 160 0 0 0-2.923 13.943L245 306l-2 1c-3.506-13.668-6.606-27.201-8.36-41.21-.425-3.387-.98-6.722-1.617-10.075-3.218-17.34-4.317-34.921-4.398-52.527l-.023-2.105c-.14-15.79 1.866-30.485 10.398-44.083 3-2 3-2 5-2"/><path fill="#432e23" d="m154.938 354.813 2.59-.043c2.63.245 4.167.999 6.472 2.23-4.768 24.049-9.593 48.086-15 72h-17c.589-7.34 1.804-14.278 3.5-21.437l.684-2.967c.833-3.586 1.651-7.102 2.816-10.596l-10-1c-10.006 22.736-10.006 22.736-10 47-1.727.136-3.457.232-5.187.313l-2.918.175c-4.079-.688-5.44-2.212-7.895-5.488-3.089-13.046 2.947-25.274 8-37 .672-1.664 1.343-3.33 2-5h-3l.188 2.75C110 399 110 399 109 401.375c-2.697 2.191-4.674 2.065-8.062 2.059-2.525-.565-3.416-1.354-4.938-3.434-.895-4.307-.527-7.99 1.5-11.875 4.141-3.52 8.24-4.977 13.594-5.328 6.939-.468 6.939-.468 12.496-4.344a155 155 0 0 0 4.406-6.387c2.503-3.83 5.396-7.228 9.004-10.066h2v-2q1.904-.972 3.813-1.937l2.144-1.09c3.445-1.64 6.207-2.132 9.98-2.16M143 368q-1.938 2.655-3.875 5.313l-2.18 2.988c-3.103 3.945-3.103 3.945-3.945 8.699l7 2c2.66-5.702 5.006-12.84 3-19"/><path fill="#96b720" d="m314 193 1.813 2c11.428 11.3 21.315 14.224 36.88 14.33 7.725-.09 14.533-1.365 21.307-5.33l1-2 4 1-2 1c-2.396 1.958-2.396 1.958-2.25 5.625q.106 2.188.25 4.375c.326 10.672-2.035 18.695-9.023 26.992-6.898 7.007-14.114 9.944-23.891 10.035-11.83-.596-20.286-4.043-28.758-12.418-6.934-7.77-7.151-15.828-6.793-25.91.53-7.441 3.372-13.56 7.465-19.699"/><path fill="#523d33" d="m137 362 2 1c-1.375 2-1.375 2-3 4h-2l-.375 1.75c-.95 3.421-2.107 5.732-4.625 8.25a89 89 0 0 0-2 4l2.313-.937A111 111 0 0 1 135 378l1-6h3c-.658 3.297-1.894 5.841-3.562 8.75l-1.38 2.422L133 385l6 1-4 2v-2l-5-1-1 6 4 1-1.812.078c-2.51.788-2.51.788-3.75 3.844q-.746 1.904-1.438 3.828l-.77 2.05A427 427 0 0 0 123 408l-1.238 3.395c-3.095 9.126-5.09 19.078-2.762 28.605-1.727.136-3.457.232-5.187.313l-2.918.175c-4.079-.688-5.44-2.212-7.895-5.488-3.089-13.046 2.947-25.274 8-37 .672-1.664 1.343-3.33 2-5h-3l.188 2.75C110 399 110 399 109 401.375c-2.697 2.191-4.674 2.065-8.062 2.059-2.525-.565-3.416-1.354-4.938-3.434-.895-4.307-.527-7.99 1.5-11.875 4.141-3.52 8.24-4.977 13.594-5.328 6.939-.468 6.939-.468 12.496-4.344a149 149 0 0 0 4.398-6.387c2.553-3.89 5.592-6.943 9.012-10.066"/><path fill="#452f23" d="M183.908 359.942 186 360c-1.48 8.556-3.226 17.052-5.032 25.544q-.704 3.323-1.402 6.647l-.91 4.293-.818 3.867c-.827 3.6-1.79 7.108-2.838 10.649l-4 1v2l2-1 .813 2.438L175 418l3 1v3h2v4h-2l-1.562 2c-3.183 2.612-5.238 2.513-9.25 2.328-2.976-.446-4.868-1.43-7.188-3.328-3.54-5.31-3.371-10.956-2.215-17.11q.619-2.824 1.278-5.64l1.39-6.297.756-3.369c1.293-5.858 2.493-11.735 3.698-17.611q.975-4.738 1.956-9.473.57-2.75 1.137-5.5c5.516-1.497 10.184-2.217 15.908-2.058"/><path fill="#862a29" d="m342.688 181.75 2.548-.023 2.463.007 2.214.007c4.035.5 6.35 2.425 9.087 5.259a415 415 0 0 0 7.137 5.379L368 194v2h2l.813 3.438L372 203l3 1a328 328 0 0 1-4.125 2.438l-2.32 1.37c-9.55 4.454-25.272 3.62-35.18.692-7.973-3.173-14.288-8.667-19.375-15.5v-1h6l.188-2.312C321 187 321 187 323.125 185.313c6.624-3.025 12.364-3.63 19.563-3.563"/><path fill="#402a1f" d="M273 360c-.516 6.499-1.467 12.662-3 19h-2l-1 8-3 1h2l-.5 2.438c-.389 2.769-.485 4.943-.375 7.687.056 4.785-1.012 8.991-2.258 13.59-1.508 5.713-2.653 11.503-3.867 17.285h-16v-3l-1-1a208 208 0 0 1-2-5c4.75-5.875 4.75-5.875 7-7 .656-2.527.656-2.527 1-5h2v-4h-2c1.392-10.6 2.89-21.152 5.063-31.625l.49-2.42c.752-3.502 1.439-5.942 3.447-8.955 5.205-1.431 10.643-1.095 16-1"/><path fill="#5b203e" d="M150 99c7.454.944 13.483 2.276 20 6a896 896 0 0 0 6.434 3.07C178 109 178 109 179 111a393 393 0 0 0 5 3c4.755 3.132 6.979 6.783 9 12v2h2c1.262 2.525 1.099 4.312 1.063 7.125l-.028 2.758L196 140c-14.4.341-23.837.029-35-10-8.05-8.302-10.82-17.513-11.062-28.945z"/><path fill="#473429" d="m380.438 377.938 2.933.027L386 378h18c1.577 4.04.458 7.754-.434 11.828l-.475 2.27a1397 1397 0 0 1-1.529 7.152l-1.025 4.86A2888 2888 0 0 1 398 416l6 1c-.58 4.78-2.399 8.021-5 12-3.576 1.192-6.24 1.26-10 1-2.562-1.375-2.562-1.375-5-3a125 125 0 0 0-6-2l1-3 3 1v-5l-13 1 2-12h1l1 9 5 1c4.591-8.212 5.437-18.824 7-28l-2-1-2.375 2.5C378 393 378 393 376 393l-1 3-1-4h3q.079-2.187.125-4.375l.07-2.46c.019-2.378.019-2.378-2.195-4.165-2.603.32-2.603.32-5 1 3.487-3.646 5.395-4.123 10.438-4.062"/><path fill="#3e522a" d="M174.285 174.602c1.965 1.648 1.965 1.648 4.715 4.398-6.215 7.251-15.597 11.467-25.05 12.254-11.635.401-22.925-1.518-31.95-9.254l1-3h2v-2l5-2v-2c13.285-5.991 31.851-7.113 44.285 1.602"/><path fill="#442e24" d="M378 381c0 3.812-.294 7.258-1 11l-2 1 .125 3.063c-.13 4.118-.858 7.055-2.125 10.937h-2l.07 1.863.055 2.45.07 2.425C371 416 371 416 369 419l13-2c1 4 1 4 0 6h-3l-.187 2.375C378 428 378 428 375.938 429.313c-5.411 1.266-11.024 1.635-15.938-1.313-1.687-2.562-1.687-2.562-3-5-2.698-1.349-4.152-.803-7 0l-1 2c0-2.694.135-4.484 1-7l1.481-1.38c1.775-1.893 2.066-3.006 2.511-5.534l.44-2.294.443-2.417c1.948-9.55 4.837-18.435 13.125-24.375 5.992-2.336 5.992-2.336 10-1"/><path fill="#5e1f3b" d="M356 113h-2l-.187 2.875c-.751 5.18-2.984 9.756-5.813 14.125-2.75 2-2.75 2-5 3l-1 2h-2l-1 3-7 1v2c-6.983 2.328-14.049.84-21-1 .592-3.535 1.916-5.373 4.313-8l1.906-2.094L319 128l2.313-2.5C323 124 323 124 325 124v-2c8.518-6.934 19.898-12.432 31-9"/><path fill="#49342c" d="M122 399v2l2 1h-3l1 2c.318 4.53.188 7.883-1.437 12.125-2.723 7.407-3.469 16.195-1.563 23.875-1.727.136-3.457.232-5.187.313l-2.918.175c-4.083-.688-5.443-2.203-7.895-5.488-2.008-9.079.12-17.802 3.188-26.375l.881-2.504c2.218-5.675 2.218-5.675 5.431-7.683 3.342-.585 6.192-.087 9.5.562"/><path fill="#3e5526" d="m294 70 2 1c.058 4.333.094 8.666.125 13 .017 1.22.034 2.441.05 3.7.055 10.1-.56 17.362-7.175 25.3h-2v3h-3l-1 3c-4.4-6.307-6.313-10.26-6-18 1.615-7.92 3.894-16.549 9-23l3-1q1.021-2.491 2-5z"/><path fill="#842a26" d="M213 68c7.598 5.124 10.536 12.992 12.616 21.727.747 4.426.67 8.859.634 13.335l.023 2.893c-.014 5.408-.487 9.934-2.273 15.045h-1l-2-10-4-1c-1.195-2.625-1.195-2.625-2.125-6l-.992-3.582L213 97l-.695-2.512c-1.408-5.52-1.518-10.81-1.305-16.488l4-2-2-1z"/><path fill="#473126" d="M183 404h1c.195 5.552-.311 9.723-2 15v2c2.892.826 4.887 1 8 1l1 4h3l-2-1c-.37-5.538-.37-5.538 1.5-7.875L195 416l4 2v-3l-3-1 1-4h3l.375 3.438L201 417c4.083 2.041 8.703 1.011 13 0v-2h2v4l2 1 1-1h2c-.25 1.875-.25 1.875-1 4-1.625 1-1.625 1-4 2a349 349 0 0 0-5.121 3.098c-3.997 1.92-8.07 2.04-12.441 2.027l-2.817.008A27 27 0 0 1 189 429v-2c-2.842-1.573-2.842-1.573-6-2a131 131 0 0 0-5 4l-2-1 2-3 2 1v-4h-2v-3l-1.875-.25C174 418 174 418 172.75 415.938L172 414h-3l2-3h4v5c1.96 1.261 1.96 1.261 4.047.414 2.2-1.298 2.2-1.298 2.781-4.016l.422-3.023c.15-1.003.3-2.006.453-3.04z"/><path fill="#54443e" d="m315.934 377.734 3.503.016 3.497-.016C326 378 326 378 329 380v2h2c2.008 4.016 1.61 8.884.387 13.125-2.943 6.638-8.093 11.355-14.637 14.375-2.702.491-4.21.477-6.75-.5l3-6-3-1 3.313-1.75c3.01-1.752 5.09-3.056 6.687-6.25.52-2.68.772-5.27 1-8-4.198 3.744-6.078 6.84-8 12-1.062-1.812-1.062-1.812-2-4 1.655-4.965 3.34-8.549 8.063-11.125L321 382l2-1v-2l-12 1c2-2 2-2 4.934-2.266"/><path fill="#a3b74d" d="M180 178c2.854 1.427 2.876 3.002 4 6q1.483 3.269 3 6.523c4.08 10.107 4.87 22.347 2.09 32.946A49 49 0 0 1 185 231l-1.387 2.152c-1.44 2.057-2.97 3.949-4.613 5.848l-1.809 2.129c-5.599 6.117-11.092 9.271-19.379 10.246-11.431.416-25.127-1.342-33.812-9.375v-1c3.43-.332 5.465.17 8.75 1.375 6.495 2.314 13.337 2.746 20.16 3.394q2.12.235 4.225.589c4.419.724 6.98.714 10.803-1.67l2.277-1.364c1.919-1.215 1.919-1.215 2.785-3.324h3v-3l4-1 .262-2.45c.852-6.483 1.393-10.301 6.738-14.55 2.589-7.767.167-14.759-2.027-22.316-.95-3.598-1.522-7-1.973-10.684l-3-1c-1.178-2.944-1.033-3.9 0-7"/><path fill="#432f27" d="M203 378c2.061-.109 4.124-.186 6.188-.25l3.48-.14c3.99.467 5.543 1.555 8.332 4.39 1.577 4.73 2.033 9.443.129 14.156-3.479 5.931-8.035 10.449-14.316 13.281-2.758.552-4.217.561-6.813-.437h3v-2h-3l1-3-1-1 1-2 2.313-.687c3.725-1.82 5.154-4.61 6.687-8.313.785-3.273.785-3.273 1-6l-2-1c4.625-3 4.625-3 8-3v-2l-3 1v-2h-11z"/><path fill="#432e23" d="M352 359c2.824 2.026 4.634 3.511 5.484 6.969.141 2.094.141 2.094-.484 6.031-2.338 2.605-4.167 3.701-7.437 4.875-3.303.161-5.552-.537-8.563-1.875-2.67-4.006-2.707-7.29-2-12 3.571-4.926 7.281-5.601 13-4"/><path fill="#412b23" d="m119 384 1 2-2 2h-2c-3.339.72-3.339.72-4.625 4.25-1.409 3.546-1.409 3.546-1.937 6.563C109 401 109 401 107 403c-7.207.572-7.207.572-9.727-1.246-2.02-2.782-1.74-5.19-1.636-8.527.532-3.263 1.994-4.997 4.363-7.227 5.527-2.763 12.958-2.11 19-2"/><path fill="#483226" d="M122 399v2l2 1h-3l1 2c.232 7.304.232 7.304-1 11h-2v2h-2l-.312 1.938L116 421l-3 1-.375-2.437L112 417l-2-1 1-6h-3c.458-3.47.891-6.674 2-10 4.17-2.453 7.371-1.908 12-1"/><path fill="#a15b38" d="m246 320 1 3h2c1.257 2.906 2 4.796 2 8h3v12h17v-1h5l1-3h4v-2l3-1v2h5l-1-3 1.813-.187c3.048-1.133 3.603-3.058 5.187-5.813l3-1c-.547 3.375-1.055 5.082-3 8h-2l-1 3c-10.09 6.458-26.091 9.249-38 7-4.079-3.626-5.096-7.872-6.25-13l-.523-2.117c-.877-3.687-1.434-7.093-1.227-10.883"/><path fill="#93202f" d="m208 65 5 2v8l4 1-5 2c-.42 6.624.346 12.4 1.875 18.813l.526 2.208c1.378 5.64 1.378 5.64 3.599 10.979l3 1c2.283 3.245 2.176 6.125 2 10l-2 1-.75-3.875c-.503-2.2-.503-2.2-1.25-4.125-1.866-1.183-1.866-1.183-4-2-4.153-4.886-5.074-9.838-6-16h-1c-1.877-8.284-1.095-16.65 0-25h2l-2-3z"/><path fill="#514e52" d="m317 438 5 2v2l3 1c1.845 1.876 3.368 3.927 5 6l1-10h4v18l-3 1a654 654 0 0 1-3.437-3.812l-1.934-2.145C325 450 325 450 324 447h-2l-1 10h-4z"/><path fill="#a3b94b" d="m119 182 2 1-1 3v2.438c0 3.915-.84 7.265-3 10.562-2.074.613-2.074.613-4 1-.287 11.556-.287 11.556 1 23l2 2c.565 2.655.738 5.291 1 8h7c.8 3.287 1.097 4.71 0 8-3.681-1.473-5.325-3.391-7.562-6.625-.58-.817-1.158-1.635-1.754-2.477-3.834-6.6-5.243-12.472-5.184-20.085l.01-2.51c.275-10.234 4.085-18.695 9.49-27.303"/><path fill="#636365" d="m189.5 438.188 2.344.167c2.92.873 3.69 2.006 5.156 4.645.841 4.011 1.056 8.16-1.031 11.797-2.131 2.107-4.265 3.126-7.23 3.45-3.93-.202-6.172-.805-9.302-3.247-1.953-4.077-2.276-7.556-1.437-12 3.134-4.323 6.318-5.27 11.5-4.812m-5.687 3.875c-2.182 1.932-2.182 1.932-2.125 5.5.088 3.294.088 3.294 1.312 5.437 3.336 1.013 3.336 1.013 7 1 2.647-1.397 2.647-1.397 4-4 .164-3.096.164-3.096-1-6-3.008-3.008-5.19-3.88-9.187-1.937"/><path fill="#b7184d" d="M355 181.375c2.125.773 2.125.773 4 1.625l2.016.82c2.549 1.516 3.945 3.325 5.734 5.68l1.86 2.406C370 194 370 194 370 196h-2l-5-5a129 129 0 0 0-3.75-2.687C356 186 356 186 355 184c-4.09-1.363-7.903-1.224-12.187-1.25l-2.502-.062c-5.807-.037-9.987.99-15.311 3.312l-2.437.938c-1.769.976-1.769.976-2.313 3.187L320 192l-7 1v-5l-2-1-1-3 4 1v3h4l.563-1.812c2.12-3.229 4.897-3.86 8.437-5.188 6.992-3.496 20.736-1.791 28 .375"/><path fill="#9ab33c" d="M124 241c3.43-.332 5.465.17 8.75 1.375 6.494 2.314 13.332 2.741 20.153 3.396q2.156.236 4.3.576c4.652.798 4.652.798 8.797-1.347l3 1-4 1v3c-11.247 3.358-26.221 1.073-36.566-4.344-1.934-1.344-1.934-1.344-4.434-3.656z"/><path fill="#535253" d="M222 438c9 1 9 1 11 3 .563 5.296.563 5.296-1.5 7.875L230 450l4 7-3 1-5-5-1 5-3-1zm3 3 1 5h3c-.267-1.985-.267-1.985-1-4z"/><path fill="#656367" d="M132 438c5.792.368 5.792.368 8 1 2 3 2 3 1.75 5.5C141 447 141 447 139 450l2.063 2.313L143 455l-1 3h-3c-2.187-2.5-2.187-2.5-4-5l-1 5-3-1a2399 2399 0 0 1-.062-8.937l-.026-2.577-.01-2.45-.016-2.27C131 439 131 439 132 438m2 3v5h3v-2l2-1z"/><path fill="#6a686b" d="m260.285 437.902 2.777.036 2.786.027L268 438v3h-7v4h7v4h-7v5h7v4q-2.47.039-4.937.063l-2.778.035C258 458 258 458 257 457a55 55 0 0 1-.133-4l-.004-2.437.012-2.563-.012-2.562.004-2.438.004-2.25c.2-2.72.696-2.732 3.414-2.848"/><path fill="#949293" d="M354 438h11v3h-7v4h7l-1 4h-6v5h7l-1 4q-2.22.039-4.437.063l-2.497.035C355 458 355 458 354 457a63 63 0 0 1-.098-4.254l.01-2.588.026-2.72.013-2.733q.02-3.353.049-6.705"/><path fill="#695950" d="m315.934 377.734 3.503.016 3.497-.016C326 378 326 378 329 380v2h2c1.203 2.405 1.1 3.95 1.063 6.625l-.028 2.477L332 393l-4-2-1 3v-4l-3-1 2-1v-3l-3 1-1 7 2 1h-3v-8c-4.198 3.744-6.078 6.84-8 12-1.062-1.812-1.062-1.812-2-4 1.655-4.965 3.34-8.549 8.063-11.125L321 382l2-1v-2l-12 1c2-2 2-2 4.934-2.266"/><path fill="#6c6a6b" d="m370 438 9 1c1.188 3.25 1.188 3.25 2 7-1.375 2.438-1.375 2.438-3 4l1.5 2.313C381 455 381 455 381 458c-2.886-.398-3.822-.79-5.75-3.062L374 453l-1 5h-3zm3 3v5l4-1-1-3z"/><path fill="#4b4b4d" d="M203 438h3l1 14c3.636 1.08 3.636 1.08 6 1v-14h4c.599 13.705.599 13.705-3 18-3.56 1.1-5.744 1.547-9.207.04-2.846-3.238-2.22-6.577-2.043-10.728l.055-2.416c.047-1.966.119-3.93.195-5.896"/><path fill="#5d5c5d" d="M147 438h10v4l-7-1v4h7v4h-7v5h8l-1 4q-2.22.039-4.437.063l-2.497.035C148 458 148 458 147 457a63 63 0 0 1-.098-4.254l.01-2.588.025-2.72.014-2.733q.02-3.353.049-6.705"/><path fill="#433127" d="M273 360c-.516 6.499-1.467 12.662-3 19a141 141 0 0 1-5-5v-2h2l-1.5-2.375C264 367 264 367 264 365l-2-1-1 1-2 1-1-1h-2l-1 7c-1.348-3.064-.89-4.379.063-7.687C257 361 257 361 259.563 360.063c4.481-.082 8.955-.143 13.437-.063"/><path fill="#c4894b" d="M240 318h2c-1.82 12.232-1.82 12.232-5 16-6.6 4.62-12.835 4.662-20.562 3.434-10.686-2.126-10.686-2.126-14.438-5.434 1.392-.252 2.789-.475 4.188-.687l2.355-.387c2.457.074 2.457.074 4.738 1.512 3.68 2.114 6.857 2.119 11.031 2.25l2.245.103c1.814.082 3.628.147 5.443.209 1.133-2.214 2.13-4.352 3-6.687 1-2.313 1-2.313 3-3.313.73-2.314 1.401-4.648 2-7"/><path fill="#4a494b" d="m248.688 438.438 2.449.308L253 439v4l-3.75-.75c-3.243-.403-3.94-.447-6.812 1.375-1.676 2.287-1.676 2.287-1.375 5 .804 2.698.804 2.698 3.937 4.375 2.057.24 2.057.24 4.188.125L253 453c-.375 1.938-.375 1.938-1 4-2.82 1.41-4.87 1.245-8 1-3.494-1.668-4.827-2.74-7-6-.67-6.915-.67-6.915 1.813-10.937 3.297-3.11 5.582-3.185 9.875-2.625"/><path fill="#444144" d="M165 438q3.51.43 7 1l1 4-6-1 1 3q1.995.514 4 1c2 3 2 3 1.813 6.563C173 456 173 456 170 458c-2.437.375-2.437.375-5 0-2.312-2-2.312-2-4-4l1-3h3v2l5-1-2.312-1.75c-4.34-3.633-4.34-3.633-5.688-6.25.668-2.393 1.221-4.221 3-6"/><path fill="#3f3e3f" d="M302 438h10l1 3h-8v4h7v4h-7v5h8l-1 4q-2.22.039-4.437.063l-2.497.035C303 458 303 458 302 457a63 63 0 0 1-.098-4.254l.01-2.588.026-2.72.013-2.733q.02-3.353.049-6.705"/><path fill="#4a484a" d="m292.688 438.438 2.449.308L297 439v4l-3.25-.562c-3.154-.368-4.848-.483-7.75.562-.356 4.621-.356 4.621 1 8.938 3.266 1.735 6.344 1.242 10 1.062-.375 1.938-.375 1.938-1 4-2.903 1.451-4.773 1.372-8 1-4.353-2.418-4.353-2.418-6-5-.67-4.067-.872-8.256 1-12h2v-2c3.095-1.032 4.526-.975 7.688-.562"/><path fill="#5a6158" d="m296 69 1 3h2l-1 8h2l-1 3c-.303 2.832-.508 5.664-.719 8.504C298 94 298 94 297 96l2 1-2 2 .063 2.938C297 105 297 105 295.563 106.625L294 108l-.46 1.855c-.914 3.633-2.912 6.503-5.54 9.145-3.312.938-3.312.938-6 1v-3l1 1c2.248-2.052 3.002-3.007 4-6h2c1.337-1.577 1.337-1.577 2.563-3.625l1.316-2.04c2.25-4.687 2.238-9.638 2.183-14.757l-.023-3.605L295 84.25q-.038-3.68-.062-7.36l-.036-3.28C295 71 295 71 296 69"/><path fill="#392319" d="m145 358 2 1v2h-2l-1 6-3 1-1 5-3-1-.75 2.813c-1.346 3.432-2.066 4.458-5.25 6.187-2.75.688-2.75.688-5 1 .613-2.962 1.254-4.38 3-7l2-1 .313-1.75c1.012-3.312 3.18-4.918 5.687-7.25l2.063-2.125c1.876-1.816 3.814-3.358 5.937-4.875"/><path fill="#72420c" d="M322 200c2.309.866 4.547 1.74 6.69 2.969 5.462 3.094 10.159 3.708 16.373 3.844l2.603.115c9.103.405 9.103.405 17.334-2.928 2.043-.195 2.043-.195 4.188-.125L373 204c-1.542 3.085-3.896 3.653-7 5-12.027 2.633-26.933 2.698-38-3-2.34-1.53-4.035-2.98-6-5z"/><path fill="#534138" d="m311 418 7 1-1 3h-2l-1 5h6l-1-3h3l2 2c-5.027 3.212-8.558 4.141-14.5 4.125l-2.844.008c-2.423-.121-4.4-.24-6.656-1.133l-1-3c3-1 3-1 7-1 2.25-1.917 2.25-1.917 4-4l-2-1h4z"/><path fill="#b21655" d="M154 87h1v9l3 1v2l1.793.367c4.245.9 8.231 1.838 12.207 3.633v2h4v2l4 1v2c2.228 1.155 4.183 2.048 6.625 2.688C189 114 189 114 190.313 117.625L191 121l-2-1v-2l-1.812-.812C185.002 116 183.742 114.742 182 113c-2.1-1.176-2.1-1.176-4-2v-2l-1.937-.75A248 248 0 0 1 168.5 105c-.781-.347-1.562-.694-2.367-1.05a855 855 0 0 1-4.758-2.138c-3.086-1.055-6.144-1.432-9.375-1.812v-9h2z"/><path fill="#97b130" d="m375 202 4 1-2 1c-2.396 1.958-2.396 1.958-2.25 5.625q.106 2.188.25 4.375c.25 7.232-.258 13.579-4 20l-3 2v-13l4 1v-16l-5 2-3-1 2.152-1.023 2.786-1.352 2.777-1.336c2.414-1.081 2.414-1.081 3.285-3.289"/><path fill="#695a51" d="m380.625 377.938 3.04.027L386 378v1l-5 1v2l3.438.813L388 384c1.097 3.29.8 4.713 0 8h-2l-1 4v-7l-2-1-2.375 2.5C378 393 378 393 376 393l-1 3-1-4h3q.079-2.187.125-4.375l.07-2.46c.019-2.378.019-2.378-2.195-4.165-2.603.32-2.603.32-5 1 3.544-3.705 5.5-4.122 10.625-4.062"/><path fill="#4a6416" d="m176 179 3 1c-11.813 8.378-21.388 12.06-36 11-7.963-1.512-14.864-3.595-21-9v-1c2.313-.25 2.313-.25 5 0l1.27 1.906c3.606 4.364 10.394 4.344 15.73 5.094 11.712.978 20.689-.725 30.09-7.89z"/><path fill="#62544c" d="M183 404h1c.195 5.552-.311 9.723-2 15v2c2.892.826 4.887 1 8 1l2 7h-3v-2c-2.842-1.573-2.842-1.573-6-2a131 131 0 0 0-5 4l-2-1 2-3 2 1v-4h-2v-3l-1.875-.25C174 418 174 418 172.75 415.938L172 414h-3l2-3h4v5c1.96 1.261 1.96 1.261 4.047.414 2.2-1.298 2.2-1.298 2.781-4.016l.422-3.023c.15-1.003.3-2.006.453-3.04z"/><path fill="#c57921" d="M236 161c0 3.209-.642 4.883-1.875 7.813-1.524 3.692-2.921 7.375-4.125 11.187h-2l-1 8-6-2c1.384-9.704 8.36-18.138 15-25"/><path fill="#a19731" d="M214 68c4 0 4 0 6.25 2.188 1.864 2.995 2.143 4.37 1.75 7.812h2q.726 2.53 1.438 5.063l.808 2.847c1.857 7.612 2.046 15.232 2.316 23.028l.131 3.517q.159 4.272.307 8.545l-3-1c-1.417-6.496-.994-12.991-.785-19.594.131-8.658-1.722-16.077-5.715-23.781l-1.219-2.398c-1.278-2.222-2.699-4.213-4.281-6.227"/><path fill="#bb894b" d="M195 281h1q.039 3.156.063 6.313l.035 3.55C196 294 196 294 195 297c-.721 8.39.775 16.726 2 25l1 7c-3.404-1.702-3.969-4.924-5.168-8.39-3.006-13.042-.602-26.735 2.168-39.61"/><path fill="#964c34" d="M258.188 153.313c4.704 2.822 4.704 2.822 6.812 4.687v2l3 1-1 2c-2.437-.375-2.437-.375-5-1l-1-2h-2q-1.53-1.47-3-3l-2-1v2h-2v2l-2.312-.937A111 111 0 0 0 244 157c.313-1.937.313-1.937 1-4 4.74-1.58 8.546-1.599 13.188.313"/><path fill="#7b1441" d="M152 100c5.884-.4 9.87.803 15.188 3.25l2.115.91c3.978 1.78 6.75 3.546 9.697 6.84a264 264 0 0 0 5 3c4.755 3.132 6.979 6.783 9 12v2h2c1.478 2.957 1.06 5.742 1 9h-1l-.875-3.375c-.817-3.628-.817-3.628-3.125-5.625l-.875-2.312c-2.553-6.098-6.75-8.975-12.2-12.356C176 112 176 112 175 110a152 152 0 0 0-5-2 364 364 0 0 1-3.687-1.937c-4.584-2.34-9.36-3.723-14.313-5.063z"/><path fill="#37241a" d="m217 382 3 1c1.476 3.49 1.27 7.28 1 11-1.375 1.813-1.375 1.813-3 3l-2 2a90 90 0 0 1-6 1l-1-2c.938-2.625.938-2.625 2-5h2l-1-4 4-1-.062-2.437C216 383 216 383 217 382"/><path fill="#a9b75d" d="m227 121 8 1v2l2.125-.125C240 124 240 124 242.469 125c4.99 1.413 9.748 1.212 14.906 1.125l3.098-.027q3.763-.036 7.527-.098v-2l3 1c-7.65 6.284-19.622 4.881-29 4-5.763-1.222-11.03-3.576-15-8"/><path fill="#382218" d="m119 384 1 2-2 2h-2l-3 1-.937 1.938c-1.297 2.517-2.485 3.03-5.063 4.062-2-1.25-2-1.25-4-3 0-4 0-4 1-7 5.08-.847 9.848-1.09 15-1"/><path fill="#c46924" d="M230 232h1l.228 2.133c1.313 12.162 2.65 24.226 5.077 36.222 1.178 6.177 1.933 12.405 2.695 18.645h-3l-.244-2.016c-.37-3.037-.75-6.073-1.131-9.109l-.383-3.172c-.652-5.154-1.47-9.799-3.242-14.703-1.442-9.225-1.106-18.69-1-28"/><path fill="#c66a25" d="M230 177c.857 2.476 1.003 3.983.547 6.592-.661 4.12-.776 8.14-.863 12.306l-.063 2.53q-.097 3.974-.184 7.947l-.13 5.41q-.16 6.608-.307 13.215c-2-1-2-1-2.613-2.664-1.559-9.413-.332-19.448.488-28.899l.238-2.847c.45-4.8 1.095-9.066 2.887-13.59"/><path fill="#533f38" d="M248 398c1.125 3.75 1.125 3.75 0 6h2v4h-2l-1 7h-2l-2 3h-2l-1 2-5-1v-2l3.313-.187c3.74-.409 3.74-.409 5.312-2.938 1.536-3.212 2.324-6.208 3.063-9.687.25-1.162.502-2.323.761-3.52zm-9 22 3 2v3l3-1v2h-2l-1 3h-6l-1-4 3-2z"/><path fill="#ac785b" d="M295 271h1c2.612 13.82 4.39 27.35 4.375 41.438l.004 3.659c-.107 8.496-.107 8.496-2.379 11.903.01-.736.02-1.473.032-2.231.041-3.34.067-6.68.093-10.019l.05-3.512.02-3.379.032-3.11c-.232-2.812-.883-4.316-2.227-6.749a98 98 0 0 1-.625-6.937l-.115-1.98c-.339-6.36-.357-12.716-.26-19.083"/><path fill="#bf2f68" d="m307 144 3 1c-1.75 14.25-1.75 14.25-3 18-.228 2.733-.417 5.45-.562 8.188l-.131 2.271q-.158 2.77-.307 5.541c-2.372-4.291-2.664-8.175-3-13l-.2-2.129c-.375-7.042 1.919-13.282 4.2-19.871"/><path fill="#969595" d="M339 438h11v3h-4v16h-4v-16h-3z"/><path fill="#984b1a" d="M296 328h2c-.547 3.375-1.055 5.082-3 8h-2l-1 3c-5.5 4.293-11.29 4.495-18 4l2-1 1-3h4v-2l3-1v2h5l-1-3 1.813-.187c3.065-1.139 3.705-2.99 5.187-5.813z"/><path fill="#3f271a" d="m172 413 .75 1.875c1.456 2.476 2.628 3.076 5.25 4.125v3h2v4h-2l-2 3h-2v-2l-3 1c-1.5-1.375-1.5-1.375-3-3v-2h2l-1-6h2z"/><path fill="#c2346c" d="M160 75c.688 1.625.688 1.625 1 4a201 201 0 0 1-3 6l1 2c-.34 2.383-.34 2.383-.937 5.125l-.59 2.758L157 97l-3-1v-5h-2v8h-7v-1h5l.125-3.25c.854-7.022 4.51-15.044 9.875-19.75"/><path fill="#43332a" d="m332 416-2 1a506 506 0 0 0-2 6l-2 2c-3.125-.375-3.125-.375-6-1v3c-3.75 1.125-3.75 1.125-6 0l1-5h2l1-3 1.75.75 2.25.25c2.104-1.854 2.104-1.854 4-4 3-1 3-1 6 0"/><path fill="#382517" d="M322 385h4l-1 4 5 2v-5h1v10l-5 1v3l-7-1c1.875-4.875 1.875-4.875 3-6a59 59 0 0 0 .063-4.062z"/><path fill="#be547e" d="M395 147c5.635 8.452 6.01 19.156 5 29a50.7 50.7 0 0 1-4 10h-1l.492-3.398c.592-4.753.656-9.443.633-14.227l.012-2.484c-.007-4.42-.313-8.533-1.137-12.891-.037-2-.048-4 0-6"/><path fill="#adbd59" d="M180 178c2.854 1.427 2.876 3.002 4 6q1.483 3.269 3 6.523c2.748 6.805 3.26 12.678 3.125 19.915l-.027 2.794A842 842 0 0 1 190 220h-1l-.078-2.098c-.432-7.441-1.908-14.235-3.984-21.359-.93-3.511-1.495-6.941-1.938-10.543l-3-1c-1.178-2.944-1.033-3.9 0-7"/><path fill="#737374" d="m317 438 5 2v2l3 1-1 2h-1c-1.217 2.434-1.32 4.418-1.562 7.125l-.254 2.758L321 457h-4z"/><path fill="#392418" d="M382 417c1.125 3.75 1.125 3.75 0 6h-3v3c-4.43 2.092-4.43 2.092-7.312 1.625L370 427l1-4-3-2c3.077-2.682 5.197-3.42 9.25-3.687l2.703-.2z"/><path fill="#7c6d65" d="M203 378c2.061-.109 4.124-.186 6.188-.25l3.48-.14c3.99.467 5.543 1.555 8.332 4.39.96 2.882 1.106 4.699 1.063 7.688l-.028 2.449L222 394h-1v-7l-2-1 1-3-3-1v-2l-3 1v-2h-11zm11 4 3 1v7l-4-1v4h-2l-.375 1.938L210 397l-2 1 3-12-2-1c2.313-1.562 2.313-1.562 5-3"/><path fill="#8db035" d="m121 181 2.02 1.207c10.784 6.199 19.64 8.201 31.963 7.771 2.005-.06 4.012-.026 6.017.022l2 2h-30l-1-3-7-1-1-3-5 1z"/><path fill="#c55781" d="m210 64 1 2h-11l-1-4-2.312.5c-4.91.666-9.742.58-14.688.5l-1 4-1.687-.562c-2.712-.514-4.657-.102-7.313.562 8.928-10.895 26.887-7.531 38-3"/><path fill="#a3a534" d="m314 193 1.813 2c4.224 4.262 9.3 7.551 14.187 11-3 1-3 1-6.562-.187-3.333-1.758-4.355-2.322-5.438-5.813h-3c-3.357 3.366-5.566 7.23-6 12h-2c.326-7.167 3.654-12.77 7-19"/><path fill="#39241a" d="m206.125 418.938 2.758.027L211 419c0 3.796-.502 5.629-2 9l-2.937-.5c-2.023-.36-2.023-.36-4.063-.5l-1 2-4-1c.564-3.27 1.5-4.826 4-7l-2-1c2.525-1.262 4.312-1.099 7.125-1.062"/><path fill="#93350b" d="M231 236c2.779 5.453 4.152 10.44 4.715 16.504.313 2.743.816 5.412 1.347 8.121.804 4.23 1.129 8.08.938 12.375l-2 1c-4.57-25.764-4.57-25.764-5-38"/><path fill="#6e5c56" d="M214 415h2v4l2 1 1-1h2c-.25 1.875-.25 1.875-1 4-1.75 1.063-1.75 1.063-4 2l-2.625 1.688L211 428l-2-1c0-4 0-4 1-7h-8l-1-2c1.825.03 1.825.03 3.688.063 3.232.005 6.161-.275 9.312-1.063z"/><path fill="#48362d" d="M357 397h5c-.63 11.009-.63 11.009-4 16-2.105 1.156-2.105 1.156-4 2 .483-6.205 1.333-12 3-18"/><path fill="#562942" d="m332 117 2 1c-1.812 2.5-1.812 2.5-4 5h-3l-.812 1.813c-1.9 3.498-3.388 4.92-7.188 6.187l-.437 2.375C318 136 318 136 317 138h-6c3.227-5.378 7.219-9.923 12-14h2v-2c1.531-1.29 1.531-1.29 3.5-2.625l1.969-1.352z"/><path fill="#bf1453" d="m208 65 5 2-.96 3.871c-1.127 5.067-1.472 10.016-1.665 15.192l-.117 2.623Q210.12 91.842 210 95l-2 1c-1.877-8.284-1.095-16.65 0-25h2l-2-3z"/><path fill="#605e60" d="m189.563 438.188 2.378.167c2.059.645 2.059.645 3.336 2.696L196 443h-2l1 2c.04 2 .043 4 0 6l-2 1 .25-2.75c.021-3.296.021-3.296-1.937-5.687-2.195-1.832-2.195-1.832-4.813-1.375L184 443l-2.312.563L180 444l-1 8h-1c-.626-8.137-.626-8.137 1.813-11.5 3.35-2.297 5.803-2.657 9.75-2.312"/><path fill="#98af34" d="M328 247h29c-6.627 4.97-12.994 4.305-21 3.188-5.708-.896-5.708-.896-8-3.188"/><path fill="#543e37" d="M323 380h4l-1 5-3 1-1 7 2 1h-3v-8c-4.198 3.744-6.078 6.84-8 12-1.062-1.812-1.062-1.812-2-4 1.64-4.92 3.299-8.609 8.063-11.062.639-.31 1.278-.62 1.937-.938z"/><path fill="#76153f" d="M353 113c1.215 2.908.976 4.073-.04 7.129l-1.585 3.433-1.54 3.442c-1.983 3.238-3.524 4.275-6.835 5.996l-1 2h-2l-1 3-3-1 2-1c1.748-2.658 2.991-4.974 4-8 3-2 3-2 6-2l.406-1.738c.581-2.213 1.29-4.308 2.094-6.45l.781-2.105C352 114 352 114 353 113"/><path fill="#3b373a" d="M355 439h9v1h-6v5h7v3h-8v7l3 1h-5z"/><path fill="#3d251d" d="m323 379-2 5h-4l-1 4-5-2-1 2v-7c4.497-2.248 8.079-2.167 13-2"/><path fill="#a3b74b" d="M311 235c2.25-.25 2.25-.25 5 0a179 179 0 0 1 4 4c2.064 1.089 4.152 2.047 6.293 2.973C328 243 328 243 329 246c-2.215.695-2.215.695-5 1-5.19-2.818-9.637-7.174-13-12"/><path fill="#af1945" d="M335 181c21.278-.834 21.278-.834 28 4 7 7.152 7 7.152 7 11h-2l-5-5a129 129 0 0 0-3.75-2.687C356 186 356 186 355 184c-2.593-.864-4.34-1.176-7.012-1.316l-2.295-.127-2.38-.12-2.417-.13q-2.947-.158-5.896-.307z"/><path fill="#573f35" d="m268 379 3 1-2 6 5 1v9h-1l-1-5c-3.367 1.393-4.986 2.979-7 6-.625-2.812-.625-2.812-1-6l2-3h-2l-1 2 1-4 3 1z"/><path fill="#b81457" d="m362 113 1 2 3 2c-6.75.125-6.75.125-9-1l-.344 1.777c-.707 2.396-1.64 3.816-3.156 5.785-1.736 2.267-2.575 3.663-3.5 6.438h-2c1.223-4.704 2.778-8.653 5-13l.563-2.312L354 113c2.903-1.452 4.909-.723 8 0"/><path fill="#9e982f" d="m330 207 1.744.433c7.027 1.593 13.697 1.805 20.881 1.692l3.332-.027q4.021-.036 8.043-.098c-1 2-1 2-2.71 2.619-2.682.446-5.211.493-7.93.479l-3.243-.01-3.367-.025-3.414-.014q-4.168-.018-8.336-.049l-1-2c-2.017-1.134-2.017-1.134-4-2z"/><path fill="#747273" d="m231 440 2 1c.37 5.538.37 5.538-1.5 7.875L230 450l4 7-3 1c-3.08-2.773-4.688-5.063-6-9l2 1 1-2-3-1 1-2 3 1c-.776-3.075-.776-3.075-3-5l4 1v3h2z"/><path fill="#5a463b" d="m328 412 6 1c.625 2.375.625 2.375 1 5l-2 2c-.648 2.57-.648 2.57-1 5-1.625-1.687-1.625-1.687-3-4 .813-2.75.813-2.75 2-5l-2-1-1 2-1.937.938c-2.383 1.015-2.383 1.015-4.063 4.062l-4-4q1.935-1.007 3.875-2l2.18-1.125C326 414 326 414 328 414z"/><path fill="#c8985c" d="M213 208c2 3 2 3 1.723 5.168L214 216q-.389 1.992-.754 3.988l-.4 2.139-.409 2.185L211 232l-4 1c1.797-8.385 3.899-16.688 6-25"/><path fill="#bd4b7a" d="m391 185 4 1c-2.058 3.602-4.245 6.89-7 10h-2v2c-2.812 2.188-2.812 2.188-6 4l-3-1c.688-1.875.688-1.875 2-4a78 78 0 0 1 5-2l1-2h3l.375-1.75c.631-2.273 1.514-4.175 2.625-6.25"/><path fill="#52453d" d="m137 362 2 1c-1.375 2-1.375 2-3 4h-2l-.375 1.75c-.95 3.421-2.107 5.732-4.625 8.25l-1.937 2.125C125 381 125 381 122 381c3.414-7.396 9.154-13.44 15-19"/><path fill="#5e4f45" d="m314 400 2 1v1l2.938.875C322 404 322 404 323 406c-1.41.702-2.828 1.386-4.25 2.063l-2.39 1.16c-2.62.863-3.809.707-6.36-.223l3-6-3-1c1.875-1.062 1.875-1.062 4-2"/><path fill="#4f3f33" d="M203 382h5c.75 2.188.75 2.188 1 5a95 95 0 0 1-4 5c-1.256 3.18-1.256 3.18-2 6-1.109-3.326-1.542-6.53-2-10l-3-1 1.938-.812c2.393-1.075 2.393-1.075 3.062-4.188"/><path fill="#71625e" d="M273 360v4h-3v-2l-2.875 1.563L264 365l-2-1-1 1-2 1-1-1h-2l-1 7c-1.348-3.064-.89-4.379.063-7.687C257 361 257 361 259.563 360.063c4.481-.082 8.955-.143 13.437-.063"/><path fill="#5b453d" d="M150 357h-2l1.563 2.875L151 363l-1 2h-3l-2 7-2-2-3 2 1-5h3l-1-4h2l1-4-2.375 1.5C141 362 141 362 139 362v-2c1.264-.7 2.537-1.384 3.813-2.062l2.144-1.16C147 356 147 356 150 357"/><path fill="#442d20" d="m286 419 2 1v1l4 1c.625 1.875.625 1.875 1 4l-2 2c-2.616-.327-4.64-.82-7-2v2l-2-1c-.625-3.062-.625-3.062-1-6l1.938-.437c2.037-.373 2.037-.373 3.062-1.563"/><path fill="#3a2514" d="M114 411h6l-1 6h-2l-.312 1.938L116 421l-3 1-.375-2.437L112 417l-2-1 1-3 2 1z"/><path fill="#b1b45e" d="m227 47 2 1a279 279 0 0 1-2.312 3.438l-1.301 1.933C224 55 224 55 221 56a252 252 0 0 0-3 7l-2 1v4l-5-1 3-6h2l.688-2.125c2.282-5 5.75-8.833 10.312-11.875"/><path fill="#7b341a" d="M369.188 203.875 373 204c-1.598 3.195-3.711 3.712-7 5-3.281.378-6.514.329-9.812.25l-2.58-.016c-5.596-.068-11.057-.538-16.608-1.234v-1l3.691.035 4.872.028 2.423.025c7.527.03 14.35-3.438 21.202-3.213"/><path fill="#a91a55" d="m310 139 1.766.438c6.817 1.543 13.26 1.778 20.234 1.562v-2l4 1c-4.728 3.73-9.082 3.354-14.812 3.188l-2.678-.042c-2.17-.035-4.34-.089-6.51-.146l-1 4h-3z"/><path fill="#6e6d6f" d="m292.688 438.438 2.449.308L297 439v4l-3.25-.562c-3.154-.368-4.848-.483-7.75.562l-1 7h-1v-5h-2l1-4h2v-2c3.095-1.032 4.526-.975 7.688-.562"/><path fill="#c0944f" d="M206 236h1c.568 9.852-2.341 18.94-6 28h-1c.471-9.742 3.255-18.7 6-28"/><path fill="#a6b856" d="M124 241c4.252-.515 6.344.761 9.887 2.977 4.091 1.981 8.645 2.409 13.113 3.023-1.637 1.563-1.637 1.563-4 3-7.335-.497-13.5-3.25-19-8z"/><path fill="#bf2a64" d="m225 118 2 3-1.687 1.563c-1.873 1.974-3.253 3.762-4.75 6-2.126 3.05-4.078 4.93-7.563 6.437l-2-1c0-3 0-3 2-6l5 1 1-5h2l1-3h2z"/><path fill="#b28365" d="M284 208h1l.586 3.77.789 5.042.41 2.628c.865 5.506 1.825 10.977 2.98 16.431.255 2.309-.064 3.93-.765 6.129-5.365-10.83-5.246-22.135-5-34"/><path fill="#44322a" d="m207 378.813 3.75.019C214 379 214 379 217 380v2c-5.625 3-5.625 3-9 3v-3c-3.403-.677-3.403-.677-7-1l-2 2-2-2c3.69-2.46 5.611-2.238 10-2.187"/><path fill="#913309" d="M229 187h1l.076 2.092q.177 4.736.362 9.47l.119 3.292c.172 4.37.367 8.628 1.006 12.958.5 3.653.314 6.956 0 10.625l-.31 3.747L231 232h-1c-1.161-9.567-1.116-19.07-1.062-28.687q.008-2.382.013-4.764.017-5.775.049-11.549"/><path fill="#8eac34" d="m279 89 2 1-.656 2.16c-2.728 9.382-2.819 15.718.656 24.84l-2 1c-4.088-6.038-4.614-12.626-3.61-19.781.464-2.09 1.026-4.159 1.61-6.219h2z"/><path fill="#566055" d="M162 168q2.562.565 5.125 1.125L171 170v3l-1.773-.621c-8.986-2.82-17.888-3.081-27.227-3.379 6.547-4.364 12.84-2.703 20-1"/><path fill="#8cac31" d="M292 67c.75 1.625.75 1.625 1 4-1.732 3.08-3.525 5.54-6.062 8-2.343 2.418-3.552 4.952-4.938 8-1.62-4.05-.588-7.064 1-11 1.87-2.083 3.659-3.39 6-5h2z"/><path fill="#c27827" d="M214 215h1v9h-2l-.148 1.898-.227 2.477c-.07.812-.14 1.624-.21 2.46C212 233 212 233 210 235a112 112 0 0 0-1.625 6.625c-.26 1.189-.52 2.377-.79 3.602-.192.915-.386 1.83-.585 2.773-1.097-3.411-.942-6.207-.562-9.75l.308-2.984L207 233l3-1 .621-3.465.816-4.472.409-2.288c1.04-5.662 1.04-5.662 2.154-6.775"/><path fill="#c02d66" d="m177 65 1 3 3 1c-3.088 1.765-4.233 2-8 2l-2 1-2.5-.125L166 72l-2 3-3-1c4.878-4.846 9.35-7.28 16-9"/><path fill="#796c65" d="M183 404h1c.333 6.21-.55 10.283-3 16-3.625 0-5.08-.925-8-3l-1-3h-3l2-3h4v5c1.96 1.261 1.96 1.261 4.047.414 2.2-1.298 2.2-1.298 2.781-4.016l.422-3.023c.15-1.003.3-2.006.453-3.04z"/><path fill="#b8174f" d="M210 95h1l2 11 3 1 .375 1.938L217 111c2.471 1.155 2.471 1.155 5 2 1.354 2.709 1.065 5.01 1 8l-2 1-.75-3.875c-.503-2.2-.503-2.2-1.25-4.125-1.866-1.183-1.866-1.183-4-2-4.534-5.96-5.142-9.626-5-17"/><path fill="#a97351" d="M290 245h1c.701 3.58 1.384 7.165 2.063 10.75l.603 3.078.557 2.969.523 2.73c.254 2.475.023 4.126-.746 6.473l-1-2-2 1c-1.17-4.29-.623-7.642 0-12-.3-1.673-.636-3.34-1-5-.09-2.673-.045-5.324 0-8"/><path fill="#aabb59" d="M287 50c3.41 2.695 4.232 6.028 5.563 10.063 1.472 4.923 1.472 4.923 4.437 8.937l-4 2-.812-3.437L291 64l-3-1 1-9h-2z"/><path fill="#39281d" d="M404 417c-.498 3.688-1.1 5.605-4 8l-.687-1.937c-1.166-2.335-1.166-2.335-3.938-2.813L393 420l1-3c3.283-1.642 6.425-.519 10 0"/><path fill="#486212" d="M281 87h1c.125 5.75.125 5.75-1 8a70 70 0 0 0-.316 4.133l-.127 2.441-.12 2.551-.13 2.574q-.159 3.15-.307 6.301c-2.964-4.447-3.263-6.612-3-12 .584-2.5 1.252-4.982 2-7.437l1.125-3.747z"/><path fill="#734310" d="M221 80c5.809 6.337 5.315 15.186 5.25 23.25l.023 2.969-.007 2.86-.007 2.574c-.278 2.524-.992 4.166-2.259 6.347l.048-1.937c.063-2.958.101-5.917.14-8.876l.076-3.044c.06-6.34-.679-11.728-2.614-17.775C221 84 221 84 221 80"/><path fill="#b4866e" d="m271 342 7 1c-5.395 2.997-10.584 3.178-16.687 3.25-1.015.03-1.015.03-2.05.063-1.962.015-1.962.015-5.263-.313l-2-3h19z"/><path fill="#b1c066" d="M250 38v2c-2.451 1.373-4.647 2.18-7.375 2.938-3.645.936-3.645.936-6.812 2.75C233 47 233 47 230.625 46.688L229 46c13.793-8 13.793-8 21-8"/><path fill="#7a787b" d="m137 444 2 1-1 2h2v4l1.563 2.063L143 455l-1 3c-3 0-3 0-5.312-2.125C135 453 135 453 135.75 449.688L137 447l-3-1h3z"/><path fill="#7b6b63" d="m186 360-1 3v-2c-3.61.656-3.61.656-7 2-2.008-.281-4.01-.61-6-1l-1 3-2-1 1 5h-3l1-7c6.154-1.823 11.596-2.236 18-2m-11 3 3 1-2 2h-2z"/><path fill="#952033" d="m342.688 181.75 2.548-.023 2.463.007 2.214.007c2.377.295 4.016 1.083 6.087 2.259-2.417 1.208-3.36.944-6 .563-8.634-1.04-14.913-.826-23 2.437l-3-1c4.854-4.854 12.26-4.31 18.688-4.25"/><path fill="#b4896c" d="M268 163c3.695 3.214 5.32 6.44 7.188 10.938l1.542 3.652c1.058 2.842 1.8 5.426 2.27 8.41-1.5-1.375-1.5-1.375-3-3v-2h-2v-6l-3-1c-.95-2.504-.95-2.504-1.687-5.562l-.762-3.067z"/><path fill="#d17399" d="M304 154h1l.438 3.375c.346 3.446.346 3.446 1.562 5.625-.09 2.724-.234 5.41-.437 8.125l-.159 2.285q-.196 2.796-.404 5.59c-3.589-6.491-3.497-14.718-3-22z"/><path fill="#352119" d="m130 384 1 2c1.895.465 1.895.465 4.063.625L139 387l1 3h-3l-1 2-7-1c-.043-2-.04-4 0-6z"/><path fill="#71605d" d="m160 356 4 1-4 20c-.92-3.68-1.473-7.248-2-11-.32-1.67-.647-3.337-1-5h4l1-4z"/><path fill="#6d5d55" d="m220 394 1 2c-2.382 3.743-4.745 6.977-8 10-2-1-2-1-3-3 .874-2.542 1.512-3.723 3.875-5.062L216 397c1.351-.976 2.69-1.97 4-3"/><path fill="#726f70" d="m379 439 2 7-3 2v-2l-6 1v-7c3-1 3-1 7-1m-6 2v5l4-1-1-3z"/><path fill="#887b77" d="M248 398c1.125 3.75 1.125 3.75 0 6h2v4h-2l-1 7h-2l-2 3-4-1 3-1c2.75-3.714 3.737-7.33 4.688-11.812.25-1.162.502-2.323.761-3.52z"/><path fill="#c89653" d="M220 186c1.485 2.36 2.073 3.522 1.645 6.324l-.833 2.363-.792 2.387C219 199 219 199 216 200v5h-2c.609-4.604 1.847-8.565 3.563-12.875l1.378-3.492z"/><path fill="#425c0f" d="m176 179 3 1c-14.1 10-14.1 10-22 10v-2l1.871-.445c5.943-1.574 10.327-3.717 15.219-7.446z"/><path fill="#b9326b" d="M374 118c5.212 2.527 8.388 6.618 12 11l-1 2-5-2v-2l-3-1c-2.565-2.565-2.54-4.477-3-8"/><path fill="#989898" d="M309 445h3v4h-7v5h8l-1 4h-9v-1l5-1-4-1v-7h7v-2z"/><path fill="#2c292b" d="M339 438h11v3h-5v15h-1v-16h-5z"/><path fill="#392218" d="m236 418 4 2-2 5h-2v4l-6-1-1-3 5-1z"/><path fill="#87a734" d="m179 179 1 4c-6.409 4.375-11.192 6.748-19 7 3.639-2.426 7.45-4.412 11.309-6.465A52 52 0 0 0 179 179"/><path fill="#bf4778" d="M196 130h1v6l14-1c-3.252 1.626-6.34 2.907-9.75 4.125l-2.984 1.07L196 141z"/><path fill="#9d1d38" d="m210 92 2 1v4h2l.77 2.809 1.042 3.629 1.02 3.62L218 110l3 1-1 2c-1.937-.75-1.937-.75-4-2-.625-2.062-.625-2.062-1-4l-2-1c-.852-2.398-.852-2.398-1.625-5.375-.26-.977-.52-1.954-.79-2.96C210 95 210 95 210 92"/><path fill="#382219" d="m302 387 4 1-.875 2.125c-1.146 2.93-2.151 5.884-3.125 8.875h-4v-6h2z"/><path fill="#6a5a55" d="m227 377 1 3-2 1 1.563 2.25C229 386 229 386 228.688 388.313L228 390l-3-1v-3h-2c.313-3.375.313-3.375 1-7z"/><path fill="#aa6e58" d="M255 153c4.385.501 6.8 1.983 10 5v2l3 1-1 2c-2.437-.375-2.437-.375-5-1l-1-2h-2l-.875-2.937c-.767-3.17-.767-3.17-3.125-4.063"/><path fill="#791440" d="m336 138-4 1v2c-6.983 2.328-14.049.84-21-1v-1l3.36.035 4.39.028 2.21.025c5.155.023 9.915-1.23 15.04-1.088"/><path fill="#a4a930" d="M227 96h1l1 25-3-1c-1.238-5.349-.751-10.009-.062-15.375l.302-2.52c.246-2.036.502-4.07.76-6.105"/><path fill="#bac173" d="m314 193 2 4h-3l-.375 3.875c-.375 3.875-.375 3.875-2.625 6.125-.648 2.57-.648 2.57-1 5h-2c.326-7.167 3.654-12.77 7-19"/><path fill="#4e4d50" d="m214 438 3 1v12h-2l-1 2z"/><path fill="#6f635e" d="M109 393c1.108 3.323.933 4.692 0 8-2 2-2 2-3.945 2.195L99 403c2.386-1.892 4.072-3.024 7-4 .59-1.946.59-1.946 1-4z"/><path fill="#c68949" d="m214 333 2 1v2c-5.654.346-9.03-.566-14-3v-1c4.732-.928 7.667-1.228 12 1"/><path fill="#b0975e" d="m375 202 4 1c-.64.35-1.279.701-1.937 1.063-2.885 2.709-2.773 5.096-3.063 8.937h-2v-5l-2.312 1.063C367 210 367 210 364 209l2.152-1.023 2.786-1.352 2.777-1.336c2.414-1.081 2.414-1.081 3.285-3.289"/><path fill="#b4c16d" d="m265.438 37.438 2.216.447c1.784.361 3.565.737 5.346 1.115v1c-7.934.25-15.244-.29-23-2v-1c5.568-1.105 9.917-.75 15.438.438"/><path fill="#5e4f49" d="m332 426 1.875.563c2.167.674 2.167.674 4.125-.563 2.333-.04 4.667-.043 7 0l1 4c-8.787.298-8.787.298-13-2z"/><path fill="#ab7355" d="M279 188c4.342 6.513 4.273 12.566 3 20h-1v-11h-3z"/><path fill="#2b292c" d="M132 441h1v6h4l-1 4h-1l-1 7h-2z"/><path fill="#372416" d="M205 381c-1.152 2.468-2.048 4.048-4 6-3.125-.375-3.125-.375-6-1 .98-2.452 1.687-3.78 3.875-5.312 2.475-.801 3.708-.551 6.125.312"/><path fill="#3a221b" d="m148 363 3 2a109 109 0 0 1-1 7l-2 1-3-1c.586-6.152.586-6.152 1-8z"/><path fill="#b8c276" d="M374 209h1q.079 3.313.125 6.625l.07 3.727c-.192 3.591-.892 6.315-2.195 9.648h-1c-.266-6.95.388-13.235 2-20"/><path fill="#ad1d49" d="m208 65 5 2-.937 3.563C210.544 77.282 210.343 84.14 210 91h-1l.016-1.956q.029-4.397.047-8.794l.025-3.078.01-2.969.016-2.73c-.106-2.307-.463-4.264-1.114-6.473"/><path fill="#7a7a7c" d="M213 439h1l.184 2.52.254 3.293.246 3.269c.218 2.978.218 2.978 1.316 5.918-3.323 3.938-3.323 3.938-6.75 4.25L207 458l4-1v-4h2z"/><path fill="#acba5f" d="m366 235 2 1c-1.86 4.567-5.037 7.886-9.312 10.313L357 247l-2-2h4v-4l5-1 .438-1.937C365 236 365 236 366 235"/><path fill="#66646b" d="m117 106 3 4-1.875.188c-2.403.64-2.403.64-3.375 3.374L114 116l-2-1c0-4 0-4 2.5-6.75z"/><path fill="#34241e" d="M242 375h1v5h5v5h-5v-3l-3 1z"/><path fill="#ac8060" d="M296 328h2c-.547 3.375-1.055 5.082-3 8h-2l-1 3h-2c.653-4.243 2.977-7.977 6-11"/><path fill="#323234" d="M194 443h3c.285 3.379.46 6.633 0 10-2.5 2.125-2.5 2.125-5 3l-1-2 1.5-1c2.382-3.176 1.692-6.102 1.5-10"/><path fill="#97380a" d="M237 276h2l.402 2.082.536 2.73.527 2.708c.512 2.594.512 2.594 1.535 5.48-.937 2.188-.937 2.188-2 4-3.444-11.522-3.444-11.522-3-17"/><path fill="#5f4d47" d="m141 382 .375 1.938L142 386l2 1h-2l1 4h-2l-1 2-1 1a129 129 0 0 1-6-1l3-1 1-3 3 1-1-3c.938-2.687.938-2.687 2-5"/><path fill="#38281f" d="M379 379h8v2h2l1 3-4 1v-2l-5-1v-2z"/><path fill="#74675f" d="m236 365-2 1v2l-2 2-1 3h-2l1 3-2 1c-.154-8-.154-8 1-11 2.463-1.231 4.28-1.072 7-1"/><path fill="#c79357" d="M199 264c1.068 3.363.974 6.13.625 9.625l-.273 2.914C199 279 199 279 198 281h-2c-.402-6.166 1.032-11.177 3-17"/><path fill="#c55481" d="M198 61c4.847.591 8.607 1.98 13 4-3.674 1.176-7.17 1.074-11 1z"/><path fill="#979698" d="M162 451h3v2l6-1-1 3c-2.062.688-2.062.688-4 1l4 2c-2.25.25-2.25.25-5 0-2.312-2-2.312-2-4-4z"/><path fill="#7d7d7e" d="m192 439 3 1 1 3h-2l1 2c.04 2 .043 4 0 6l-2 1 .25-2.75c.054-3.307.054-3.307-2.062-5.5-2.269-1.866-2.269-1.866-5.188-3.75 1.207.03 1.207.03 2.438.063 2.496.233 2.496.233 3.562-1.063"/><path fill="#332014" d="m172 413 .75 1.875c1.456 2.476 2.628 3.076 5.25 4.125v3h2v4c-3-1-3-1-5-4l-2-1a129 129 0 0 1-2-7z"/><path fill="#6f605c" d="M319 384c-.541 3.898-1.604 5.933-4 9a88 88 0 0 0-2 5c-1.062-1.812-1.062-1.812-2-4 3.333-10 3.333-10 8-10"/><path fill="#574940" d="M267 368h2l2 2c-.023 2.164-.023 2.164-.375 4.625l-.336 2.477L270 379a141 141 0 0 1-5-5v-2h2z"/><path fill="#80746f" d="M237 364h10c-.75 7.625-.75 7.625-3 11l-1-9-6-1z"/><path fill="#c01259" d="M370 192h4c-.506 2.169-1 4-2 6l1 2c2.527.656 2.527.656 5 1-3 2-3 2-6 2-2.68-4.019-2.156-6.242-2-11"/><path fill="#655262" d="M182 140h14l-1 7-.684-1.96c-1.14-2.287-1.14-2.287-3.664-2.58l-2.714-.085c-2.723-.102-2.723-.102-4.938-.375z"/><path fill="#b6bd6c" d="m227 121 8 1v2l1.813.313c2.47.776 3.51 1.758 5.187 3.687-5.853-.45-10.082-3.038-15-6z"/><path fill="#542d42" d="m345.688 112.938 2.449.027L350 113l-1 2c-2.11.633-2.11.633-4.75 1.125l-2.61.508c-2.585.36-5.033.433-7.64.367 3.908-3.1 6.71-4.135 11.688-4.062"/><path fill="#8d8d8e" d="M243 453h10l-1 4c-2.709 1.354-5.01 1.065-8 1l2-2z"/><path fill="#0c0b0b" d="m371 439 4 1h-3v7l6-1v2l-2.437.625L373 450c-.898 3.053-.898 3.053-1 6h-1z"/><path fill="#6f605a" d="M119 415c1.125 3.75 1.125 3.75 0 6a121 121 0 0 0-.562 5.125l-.254 2.758L118 431h-1l-.375-2.25c-.463-2.735-.463-2.735-1.875-4.75l-.75-2c1.25-2.75 1.25-2.75 3-5h2z"/><path fill="#2f1d11" d="M323 379v1l-10 2 2 2v3l-4-1-1 2v-7c4.497-2.248 8.079-2.167 13-2"/><path fill="#35241e" d="m347 379 1 2c-4.37 3.035-4.37 3.035-7.25 2.875C339 383 339 383 338 380c3.073-.91 5.801-1.089 9-1"/><path fill="#5a4c47" d="M340 372c4.245-.333 6.355-.439 9.938 2l2.062 2c-4.266 1.255-6.956.838-11-1z"/><path fill="#cb9467" d="M236 161c0 4.277-1.62 7.48-4 11-2.75 1.5-2.75 1.5-5 2 1.52-5.405 5.274-8.985 9-13"/><path fill="#c15985" d="M357 112c5.177-.388 9.424.63 14 3l3 3-11-2-1-3h-5z"/><path fill="#675850" d="m127 390 6 1-1.812.563c-3.288 2.16-3.837 4.788-5.188 8.437l-3-4z"/><path fill="#82756f" d="m137 362 2 1c-1.375 2-1.375 2-3 4h-2l-.187 1.875C133 371 133 371 130.438 372.25L128 373c1.408-3.215 3.103-5.322 5.625-7.75l1.914-1.86z"/><path fill="#435337" d="M294 96h2c-1.33 9.173-1.33 9.173-4.125 12.625L290 110c0-2.91.39-4.354 1.438-7A143 143 0 0 0 294 96"/><path fill="#aebc5d" d="M348 247h9c-3.077 2.682-5.197 3.42-9.25 3.688l-2.703.199L343 251l-1-2h6z"/><path fill="#c9628f" d="M307 178c2.624 3.061 3 3.732 3 8l2 1c.625 2.563.625 2.563 1 5-2.325-2.138-3.822-4.186-5.25-7l-1.078-2.062C306 181 306 181 307 178"/><path fill="#b6c469" d="m227 47 2 1c-3.202 4.99-5.316 7.753-11 10 1.559-3.827 4.032-6.18 7-9z"/><path fill="#9ab131" d="M237 45v2l-7 1-.25 1.875C229 52 229 52 226.938 53.25L225 54c1.074-2.915 1.778-4.778 4-7 5.333-2 5.333-2 8-2"/><path fill="#a7a7a7" d="m231 440 2 1v6c-3.29 1.097-4.713.8-8 0l1-2 3 1c-.776-3.075-.776-3.075-3-5l4 1v3h2z"/><path fill="#3c271a" d="M191.188 419.938 193 421l-1 4 3 1-4 1-2-4h-2l-1-3c3-1 3-1 5.188-.062"/><path fill="#44352a" d="M330 386h1v10l-5 1c0-3 0-3 2-6h2z"/><path fill="#923b0f" d="M234 165c1.498 2.371 2.082 3.51 1.61 6.324l-.86 2.363-.828 2.387C233 178 233 178 231 179c.514-4.97 1.234-9.29 3-14"/><path fill="#adbb6d" d="m280 117 5 5-2.625.375c-3.27.606-6.248 1.508-9.375 2.625l-1-3h6v-2h2z"/><path fill="#5b5759" d="m165 438 7 1 1 4c-3.147-.7-6.026-1.76-9-3z"/><path fill="#3a2419" d="M216 415c5.75 1.75 5.75 1.75 8 4l-3 2v-2h-2v2l-3-1z"/><path fill="#362214" d="M196 410c1.414 2.639 2.372 5.071 3 8l-3 1c-2-2-2-2-3-5l1-2h2z"/><path fill="#371f14" d="m310 399 1 3 2 2h-3v2c-1.875.625-1.875.625-4 1l-2-2v-2l2.438-.875c2.695-.858 2.695-.858 3.562-3.125"/><path fill="#726360" d="m195 382 2 1-2 3 3 1h-4l2 4-6-2c1.522-2.629 2.844-4.844 5-7"/><path fill="#635853" d="m137 371 2 1c-.615 3.995-2.706 6.745-5 10l-2-1 1-3h2l.438-2.937C136 372 136 372 137 371"/><path fill="#b0c16c" d="M180 178c2.822 1.41 2.938 3.079 4 6l1.125 2.813L186 189l-3 1v-4l-3-1c-1.178-2.944-1.033-3.9 0-7"/><path fill="#908d8e" d="M297 453c-.375 1.938-.375 1.938-1 4-2.709 1.354-5.01 1.065-8 1l4-2-3-2c2.892-.826 4.887-1 8-1"/><path fill="#5b5b5c" d="M206 452c2.688.875 2.688.875 5 2v3c-2.875.188-2.875.188-6 0l-2-3z"/><path fill="#242325" d="m171 449 2 1c.043 2 .04 4 0 6-1 1-1 1-4.062 1.063L166 457l-1-2 5-1z"/><path fill="#1d1b1d" d="M223 439h8l1 6h-2l-1-3-5-1-1 2z"/><path fill="#7a777b" d="m244 438 9 1v4c-3.375-.547-5.082-1.055-8-3z"/><path fill="#76675f" d="m201 425 8 3v1c-3.674.853-7.045 1.108-10.812 1.063l-2.958-.028L193 430v-1l8-1z"/><path fill="#392117" d="m332 416-2 1c-1.134 2.017-1.134 2.017-2 4l-5-2c2.921-3.2 4.625-4.458 9-3"/><path fill="#3d2012" d="m271 381 2 2 3 1-2 4-6-1c1.875-4.875 1.875-4.875 3-6"/><path fill="#5f524b" d="M356 364h1c.367 7.466.367 7.466-1.375 10-1.625 1-1.625 1-3.625 1v-6l4 1z"/><path fill="#a37253" d="M290 339c-4.335 3.324-6.471 4.12-12 4l2-1v-2c3.38-1.04 6.478-1.08 10-1"/><path fill="#b0bd64" d="M112 225h4l.586 6.152L117 233l2 1h-3c-4-6.75-4-6.75-4-9"/><path fill="#4f5f3b" d="M287 112h3c-2.107 5.997-2.107 5.997-5 8-2.187-.312-2.187-.312-4-1l1-2 1 1c2.248-2.052 3.002-3.007 4-6"/><path fill="#505052" d="M240 450c5.75 4.75 5.75 4.75 8 7-5.438.363-5.438.363-7.937-1.25-1.063-1.75-1.063-1.75-.75-3.937z"/><path fill="#504e4f" d="m288 438 9 1v4l-4-1v-2h-5z"/><path fill="#ce9b5f" d="M195 281h1v13l-3 1q.214-2.376.438-4.75c.08-.882.162-1.763.246-2.672A44 44 0 0 1 195 281"/><path fill="#828083" d="M150 445h7v4h-7z"/><path fill="#7f6b66" d="M371 407h1l1 9 5 1v1l-9 1z"/><path fill="#574a43" d="m381 411 3 1c-.187 1.875-.187 1.875-1 4-2.562 1.25-2.562 1.25-5 2 .613-2.962 1.254-4.38 3-7"/><path fill="#a89c98" d="m287 382 2 1c1.005 3.015 1.103 5.042 1.063 8.188l-.028 2.73L290 396h-1l-1-5h-1z"/><path fill="#31221d" d="m340 365 5 1-2 1v5h-3z"/><path fill="#cda36b" d="M240 318h2a613 613 0 0 1-.875 5.313l-.492 2.988C240 329 240 329 238 332q.212-2.938.438-5.875c.08-1.09.162-2.181.246-3.305C239 320 239 320 240 318"/><path fill="#cca871" d="M206 236h1c.125 7.625.125 7.625-1 11h-2l-1 3c.596-4.869 1.57-9.328 3-14"/><path fill="#ba1653" d="M307 163c2.097 3.455 2.097 3.455 1.688 5.75L308 171c-.389 2.661-.688 5.328-1 8h-1q-.04-3.72-.062-7.437l-.026-2.143c-.009-1.807.036-3.614.088-5.42z"/><path fill="#acb76c" d="M291 58c2.68 2.68 2.97 5.397 4 9l2 2-4 2q-.507-2.123-1-4.25l-.562-2.39C291 62 291 62 291 58"/><path fill="#090709" d="M355 439h9v1l-6 1-2 6h-1z"/><path fill="#82746e" d="M162 425h2l2 3c1.964.577 1.964.577 4.125.688L174 429v1c-5.504.324-9.437.533-14-3z"/><path fill="#80716c" d="M204 405h2v2l5-1c-1 2-1 2-3.812 3.188-3.048.776-4.325.913-7.188-.188h3z"/><path fill="#73625c" d="m138 397 .313 1.938L139 401l3 1-1 2h-2l-2 4c-1.6-4.002-.293-7.046 1-11"/><path fill="#624d4a" d="M267 388h2l1 3c-1.937 3.188-1.937 3.188-4 6-2-3-2-3-2-6h3z"/><path fill="#433027" d="m139 365 3 2-2 6c-1.937-.812-1.937-.812-4-2l-1-3z"/><path fill="#8b7e7a" d="m175 361-3 1-1 3-2-1 1 5h-3c.256-2.343.593-4.678 1-7 2.463-1.231 4.28-1.072 7-1"/><path fill="#bcc975" d="M307 220c1.968 3.513 3.075 7.088 4 11l-1 3c-2.434-4.97-3.346-8.346-3-14"/><path fill="#9a213d" d="M368 196h2l.813 3.438L372 203l3 1-2 1c-2.625-.937-2.625-.937-5-2z"/><path fill="#bb3367" d="M384 196c-.187 1.875-.187 1.875-1 4-2.562 1.25-2.562 1.25-5 2 0-3 0-3 1.313-4.687C381 196 381 196 384 196"/><path fill="#ad1654" d="m346 130 2 1c-1.812 2.5-1.812 2.5-4 5h-3l-1 3-4-1 3-1 1-2h2l1-3z"/><path fill="#763c0e" d="M214 70c3.826 1.451 5.223 3.358 7 7v3h-2l-1-6h-3z"/><path fill="#403f42" d="M148 439h10l-1 3h-9z"/><path fill="#685a4e" d="M135 416h1v8l-3 1-1 2 1-8h2z"/><path fill="#5b4d49" d="m214 421 2 1v3c-2.375 1.75-2.375 1.75-5 3l-2-1c1.133-3.4 2.125-4.053 5-6"/><path fill="#7e6c68" d="M187 393c1.125 1.75 1.125 1.75 2 4-.875 2.25-.875 2.25-2 4h-2l-1 3c.75-7.625.75-7.625 3-11"/><path fill="#3f2b23" d="m104 385 5 1-1 3 3 2v2c-2.468-1.152-4.048-2.048-6-4-.625-2.125-.625-2.125-1-4"/><path fill="#897773" d="m252 379 1 4h2l-1 2a505 505 0 0 0-2 6h-2c1-8.571 1-8.571 2-12"/><path fill="#391f1d" d="M157 356q2.514.428 5 1v6l-1-2-3-1v-2l-2-1z"/><path fill="#964c27" d="M264 161c1.875.563 1.875.563 4 2 1.25 3.625 1.25 3.625 2 7-1.5-1.375-1.5-1.375-3-3v-2l-4-1z"/><path fill="#c77093" d="M386 131c2.947 2.744 5.192 5.383 7 9l-1 2c-3.867-3.222-4.88-6.15-6-11"/><path fill="#ab1a43" d="m218 112 4 1c1.354 2.709 1.065 5.01 1 8l-2 1z"/><path fill="#c67098" d="m190.164 59.805 2.461.07 2.477.055L197 60l1 2c-4.256 1.16-7.684.762-12 0 2-2 2-2 4.164-2.195"/><path fill="#1f1e1f" d="m283 444 2 1v8h-3c-.098-6.152-.098-6.152 0-8z"/><path fill="#868487" d="M169 446h3c2.152 3.228 2.2 4.284 2 8l-2-4-2 1-3-3z"/><path fill="#38261a" d="m396 423 3 1-2 5-4-2v-2h3z"/><path fill="#685a52" d="M248 398c1.125 3.75 1.125 3.75 0 6h2v4h-2l-1 2a560 560 0 0 1-.062-4.312l-.036-2.426C247 401 247 401 248 398"/><path fill="#786c69" d="m102 385 2 1v3h-2v2h-5v-2a105 105 0 0 1 5-4"/><path fill="#c15484" d="m379 123 7 6-1 2c-2.437-.625-2.437-.625-5-2-.812-3.125-.812-3.125-1-6"/><path fill="#ae1655" d="M191 121c1.938.563 1.938.563 4 2 .75 3.625.75 3.625 1 7l-1-2h-2z"/><path fill="#434244" d="m138 440 4 2-1 5h-3z"/><path fill="#362015" d="M318 422c2 2 2 2 2 5-1.875.625-1.875.625-4 1l-2-2z"/><path fill="#38221e" d="M295 415v5c-3.75 1.125-3.75 1.125-6 0v-2c4.5-3 4.5-3 6-3"/><path fill="#98918d" d="m397 416 7 1c-.75 4.75-.75 4.75-3 7v-6h-4z"/><path fill="#6f6059" d="m177 388 2 1c.286 7.429.286 7.429-2 11-.928-4.333-.928-7.667 0-12"/><path fill="#361f1a" d="M237.945 364.805 244 365l-1 3-9-1c2-2 2-2 3.945-2.195"/><path fill="#b9896b" d="m246 320 1 3h2v9c-2.024-3.035-2.321-4.194-2.625-7.687l-.227-2.45z"/><path fill="#acb864" d="m171 243 3 1c-5.143 4.429-5.143 4.429-9 5v-2l4-1v-2z"/><path fill="#b1bf6c" d="M311 235a100 100 0 0 1 5 0c1 1 1 1 1.063 3.563L317 241a318 318 0 0 1-6-5z"/><path fill="#91522a" d="M275 181c2.703 2.872 3.948 4.31 4.25 8.313L279 192c-3.15-3.423-3.562-6.443-4-11"/><path fill="#be4c7e" d="M395 147c2.321 3.482 2.699 5.862 3 10l-2 2c-.774-4.064-1.098-7.864-1-12"/><path fill="#b71456" d="M319 142v1h-7l-1 4h-3c.375-1.937.375-1.937 1-4 3.215-1.607 6.436-1.057 10-1"/><path fill="#ca558b" d="M160 75c.75 1.75.75 1.75 1 4-1.937 2.25-1.937 2.25-4 4l-2-1c3.875-5.875 3.875-5.875 5-7"/><path fill="#92b038" d="M292 67c.813 1.688.813 1.688 1 4-2.437 2.75-2.437 2.75-5 5l-1-4 4-1z"/><path fill="#948985" d="m294 401 2 4-1 1-.437 3.5L294 413l-2 1q.212-2.408.438-4.812c.08-.894.162-1.787.246-2.708C293 404 293 404 294 401"/><path fill="#cb9c60" d="M226 174c.688 1.688.688 1.688 1 4-1.312 2.75-1.312 2.75-3 5h-2c1.199-3.083 2.477-6.063 4-9"/><path fill="#c18894" d="m225 118 2 3-6 6v-5l3-1z"/><path fill="#a9a340" d="M226 110h1l2 11-3-1c-.75-3.663-1.238-6.424 0-10"/><path fill="#3a241a" d="M349 419h4v4h-3l-1 2z"/><path fill="#80726c" d="M355 405h1l1 9-3 1z"/><path fill="#312017" d="m357 402 1 3 2 1a56.5 56.5 0 0 1-4 7c-.125-7.625-.125-7.625 1-11"/><path fill="#362014" d="m211 393 1 2 2 1-1 4-4-1z"/><path fill="#6f625d" d="m302 385 2 4h-3l-1 5-2-1c1.125-2.972 2.223-5.334 4-8"/><path fill="#35261c" d="M180 375h1v8h-3c.875-6.875.875-6.875 2-8"/><path fill="#9e6844" d="M296 328h2l-1 5h-2l-2 2c.75-4.75.75-4.75 3-7"/><path fill="#994b13" d="M244 306h2l1 6h-3a88 88 0 0 1-1-5z"/><path fill="#9ab43d" d="M310 230h2v2l5 1-1 2h-5z"/><path fill="#8ca63b" d="m121 181 7 4c-3.196 1.065-5.657 1.074-9 1z"/><path fill="#af8061" d="M274 177h2l3 9-3-3v-2h-2z"/><path fill="#b54472" d="M219 124h2c-.547 3.375-1.055 5.082-3 8h-2v-3h2z"/><path fill="#a21e54" d="M362 113v2l-8 1v-3c2.862-1.43 4.934-.6 8 0"/><path fill="#3f5718" d="m280 111 3 1 1 7c-2-1.75-2-1.75-4-4z"/><path fill="#919097" d="M115 107c1.6 3.2.032 5.723-1 9l-2-1c0-4.268.376-4.939 3-8"/><path fill="#8b8a8c" d="M343 71c2.667 2.49 4.557 4.634 6 8h-4z"/><path fill="#b71254" d="m166 71 2 4c-2.332 1.206-4.496 2.165-7 3v-3l3-1z"/><path fill="#97af36" d="M250 38h6l-1 3h-7l2-1z"/><path fill="#3e261b" d="m369 392 1 2 5-1v4c-2.962-.613-4.38-1.254-7-3z"/><path fill="#361f14" d="m164 389 4 1c-.375 1.938-.375 1.938-1 4l-2 1c-1.062-1.875-1.062-1.875-2-4z"/><path fill="#5f4c48" d="m132 372-1 3c-3.062 1.188-3.062 1.188-6 2 1.773-3.926 2.48-5 7-5"/><path fill="#7d6f6d" d="m341 361 2 3-3 1v7h-1a293 293 0 0 1-.125-4.375l-.07-2.46C339 363 339 363 341 361"/><path fill="#86786f" d="M141 367h4v5l-2-2-3 2z"/><path fill="#c4995c" d="m194 321 3 1 1 7c-2.55-1.275-2.93-2.403-4-5z"/><path fill="#cb7123" d="M236 282h2l1 7h-3z"/><path fill="#b9cb72" d="M328 247h8l1 3c-6.75-.75-6.75-.75-9-3"/><path fill="#b7c779" d="M370 229h2c-.312 2.375-.312 2.375-1 5l-3 2v-5h2z"/><path fill="#ba356d" d="M389 141c1.875.188 1.875.188 4 1 1.25 2.563 1.25 2.563 2 5h-3z"/><path fill="#96ab37" d="M271 121h7c-2.57 2.112-4.63 3.663-8 4l-2-2h3z"/></svg>